<?xml version="1.0" encoding="UTF-8"?>
<svg xmlns="http://www.w3.org/2000/svg" xmlns:xlink="http://www.w3.org/1999/xlink" width="80px" height="80px" viewBox="0 0 80 80" version="1.1">
<defs>
<clipPath id="clip1">
  <path d="M 19.703125 26.746094 L 43.464844 26.746094 L 43.464844 51.648438 L 19.703125 51.648438 Z M 19.703125 26.746094 "/>
</clipPath>
<clipPath id="clip2">
  <path d="M 37.332031 22 L 42.667969 22 L 42.667969 32 L 37.332031 32 Z M 37.332031 22 "/>
</clipPath>
<clipPath id="clip3">
  <path d="M 38.054688 20.976562 L 43.890625 22.097656 L 41.820312 32.867188 L 35.988281 31.746094 Z M 38.054688 20.976562 "/>
</clipPath>
<clipPath id="clip4">
  <path d="M 38.054688 20.976562 L 43.890625 22.097656 L 41.820312 32.867188 L 35.988281 31.746094 Z M 38.054688 20.976562 "/>
</clipPath>
<clipPath id="clip5">
  <path d="M 39 27 L 48.214844 27 L 48.214844 32.640625 L 39 32.640625 Z M 39 27 "/>
</clipPath>
<clipPath id="clip6">
  <path d="M 47.390625 24.839844 L 49.757812 30.289062 L 39.699219 34.660156 L 37.332031 29.214844 Z M 47.390625 24.839844 "/>
</clipPath>
<clipPath id="clip7">
  <path d="M 47.390625 24.839844 L 49.757812 30.289062 L 39.699219 34.660156 L 37.332031 29.214844 Z M 47.390625 24.839844 "/>
</clipPath>
</defs>
<g id="surface1">
<g clip-path="url(#clip1)" clip-rule="nonzero">
<path style=" stroke:none;fill-rule:nonzero;fill:rgb(78.823529%,88.627451%,39.607843%);fill-opacity:1;" d="M 31.585938 26.796875 C 31.28125 26.796875 30.976562 26.914062 30.742188 27.148438 L 20.078125 37.816406 C 19.84375 38.050781 19.726562 38.355469 19.726562 38.660156 C 19.726562 38.964844 19.746094 39.117188 20.078125 39.117188 L 22.851562 39.117188 L 22.851562 50.359375 C 22.851562 51.0625 23.417969 51.628906 24.121094 51.628906 L 28.003906 51.628906 C 28.582031 51.628906 29.046875 51.164062 29.046875 50.585938 L 29.046875 46.566406 C 29.046875 45.890625 29.589844 45.34375 30.265625 45.34375 L 32.902344 45.34375 C 33.578125 45.34375 34.121094 45.890625 34.121094 46.566406 L 34.121094 50.585938 C 34.121094 51.164062 34.585938 51.628906 35.164062 51.628906 L 39.046875 51.628906 C 39.75 51.628906 40.316406 51.0625 40.316406 50.359375 L 40.316406 39.117188 L 43.09375 39.117188 C 43.421875 39.117188 43.441406 38.964844 43.441406 38.660156 C 43.441406 38.355469 43.324219 38.050781 43.09375 37.816406 L 32.425781 27.148438 C 32.191406 26.914062 31.890625 26.796875 31.585938 26.796875 Z M 31.585938 26.796875 "/>
</g>
<g clip-path="url(#clip2)" clip-rule="nonzero">
<g clip-path="url(#clip3)" clip-rule="nonzero">
<g clip-path="url(#clip4)" clip-rule="nonzero">
<path style=" stroke:none;fill-rule:nonzero;fill:rgb(46.666667%,72.156863%,0%);fill-opacity:1;" d="M 42.402344 27.390625 C 41.886719 30.082031 39.03125 31.792969 39.03125 31.792969 C 39.03125 31.792969 36.957031 29.136719 37.472656 26.445312 C 37.988281 23.757812 40.898438 22.054688 40.898438 22.054688 C 40.898438 22.054688 42.917969 24.703125 42.402344 27.390625 "/>
</g>
</g>
</g>
<g clip-path="url(#clip5)" clip-rule="nonzero">
<g clip-path="url(#clip6)" clip-rule="nonzero">
<g clip-path="url(#clip7)" clip-rule="nonzero">
<path style=" stroke:none;fill-rule:nonzero;fill:rgb(62.745098%,85.882353%,20.392157%);fill-opacity:1;" d="M 44.546875 32.050781 C 42.035156 33.140625 39.011719 31.753906 39.011719 31.753906 C 39.011719 31.753906 40.035156 28.539062 42.546875 27.449219 C 45.058594 26.359375 48.105469 27.800781 48.105469 27.800781 C 48.105469 27.800781 47.058594 30.960938 44.546875 32.050781 "/>
</g>
</g>
</g>
<path style=" stroke:none;fill-rule:nonzero;fill:rgb(46.666667%,72.156863%,0%);fill-opacity:1;" d="M 48.375 42.070312 C 47.941406 42.070312 47.722656 41.84375 47.722656 41.398438 L 47.722656 34.976562 C 47.722656 34.75 47.777344 34.582031 47.890625 34.460938 C 48.003906 34.34375 48.148438 34.285156 48.332031 34.285156 C 48.496094 34.285156 48.617188 34.316406 48.699219 34.378906 C 48.785156 34.4375 48.882812 34.539062 49 34.683594 L 52.855469 39.683594 L 52.855469 34.941406 C 52.855469 34.503906 53.070312 34.285156 53.5 34.285156 C 53.925781 34.285156 54.136719 34.503906 54.136719 34.941406 L 54.136719 41.421875 C 54.136719 41.621094 54.085938 41.78125 53.988281 41.894531 C 53.886719 42.011719 53.75 42.070312 53.578125 42.070312 C 53.410156 42.070312 53.277344 42.035156 53.179688 41.972656 C 53.085938 41.90625 52.980469 41.804688 52.863281 41.660156 L 49.011719 36.648438 L 49.011719 41.398438 C 49.011719 41.84375 48.796875 42.070312 48.375 42.070312 Z M 48.375 42.070312 "/>
<path style=" stroke:none;fill-rule:nonzero;fill:rgb(46.666667%,72.156863%,0%);fill-opacity:1;" d="M 56.121094 42.070312 C 55.675781 42.070312 55.453125 41.839844 55.453125 41.378906 L 55.453125 34.964844 C 55.453125 34.511719 55.675781 34.285156 56.121094 34.285156 C 56.574219 34.285156 56.800781 34.511719 56.800781 34.964844 L 56.800781 37.46875 C 56.980469 37.183594 57.222656 36.964844 57.523438 36.820312 C 57.824219 36.671875 58.160156 36.59375 58.53125 36.59375 C 59.773438 36.59375 60.398438 37.320312 60.398438 38.765625 L 60.398438 41.378906 C 60.398438 41.839844 60.175781 42.070312 59.726562 42.070312 C 59.273438 42.070312 59.046875 41.839844 59.046875 41.378906 L 59.046875 38.828125 C 59.046875 38.421875 58.96875 38.121094 58.8125 37.933594 C 58.660156 37.746094 58.421875 37.652344 58.097656 37.652344 C 57.703125 37.652344 57.386719 37.777344 57.152344 38.027344 C 56.917969 38.273438 56.800781 38.605469 56.800781 39.011719 L 56.800781 41.378906 C 56.800781 41.839844 56.574219 42.070312 56.121094 42.070312 Z M 56.121094 42.070312 "/>
<path style=" stroke:none;fill-rule:nonzero;fill:rgb(46.666667%,72.156863%,0%);fill-opacity:1;" d="M 63.289062 42.089844 C 62.90625 42.089844 62.566406 42.015625 62.269531 41.867188 C 61.96875 41.722656 61.734375 41.523438 61.566406 41.273438 C 61.394531 41.019531 61.3125 40.734375 61.3125 40.414062 C 61.3125 40.027344 61.414062 39.71875 61.613281 39.492188 C 61.816406 39.265625 62.144531 39.101562 62.597656 39.003906 C 63.050781 38.902344 63.660156 38.851562 64.421875 38.851562 L 64.796875 38.851562 L 64.796875 38.625 C 64.796875 38.265625 64.71875 38.007812 64.5625 37.847656 C 64.402344 37.6875 64.136719 37.609375 63.765625 37.609375 C 63.554688 37.609375 63.328125 37.632812 63.089844 37.683594 C 62.847656 37.738281 62.59375 37.824219 62.328125 37.945312 C 62.15625 38.023438 62.011719 38.03125 61.894531 37.972656 C 61.777344 37.910156 61.703125 37.8125 61.660156 37.679688 C 61.625 37.546875 61.632812 37.410156 61.683594 37.277344 C 61.738281 37.136719 61.847656 37.039062 62.015625 36.972656 C 62.347656 36.835938 62.664062 36.742188 62.96875 36.683594 C 63.273438 36.625 63.554688 36.59375 63.804688 36.59375 C 64.574219 36.59375 65.148438 36.773438 65.523438 37.128906 C 65.898438 37.484375 66.085938 38.039062 66.085938 38.785156 L 66.085938 41.378906 C 66.085938 41.839844 65.875 42.070312 65.457031 42.070312 C 65.035156 42.070312 64.820312 41.839844 64.820312 41.378906 L 64.820312 41.140625 C 64.699219 41.433594 64.503906 41.667969 64.238281 41.835938 C 63.972656 42.003906 63.65625 42.089844 63.289062 42.089844 Z M 63.566406 41.164062 C 63.921875 41.164062 64.214844 41.039062 64.449219 40.796875 C 64.683594 40.550781 64.796875 40.242188 64.796875 39.867188 L 64.796875 39.628906 L 64.433594 39.628906 C 63.753906 39.628906 63.285156 39.679688 63.023438 39.785156 C 62.757812 39.890625 62.628906 40.078125 62.628906 40.351562 C 62.628906 40.589844 62.710938 40.785156 62.875 40.933594 C 63.042969 41.085938 63.273438 41.164062 63.566406 41.164062 Z M 63.363281 35.933594 L 62.316406 34.425781 C 62.214844 34.273438 62.191406 34.132812 62.242188 34.003906 C 62.292969 33.875 62.382812 33.773438 62.511719 33.703125 C 62.640625 33.628906 62.777344 33.605469 62.921875 33.632812 C 63.066406 33.65625 63.183594 33.75 63.269531 33.914062 L 64.078125 35.527344 C 64.136719 35.640625 64.144531 35.746094 64.109375 35.839844 C 64.074219 35.933594 64.007812 36.003906 63.914062 36.054688 C 63.820312 36.105469 63.722656 36.121094 63.621094 36.109375 C 63.523438 36.09375 63.4375 36.039062 63.363281 35.933594 Z M 63.363281 35.933594 "/>
<path style=" stroke:none;fill-rule:nonzero;fill:rgb(46.666667%,72.156863%,0%);fill-opacity:1;" d="M 45.324219 51.667969 C 44.867188 51.667969 44.636719 51.429688 44.636719 50.953125 L 44.636719 45.125 L 42.527344 45.125 C 42.132812 45.125 41.9375 44.929688 41.9375 44.542969 C 41.9375 44.160156 42.132812 43.972656 42.527344 43.972656 L 48.121094 43.972656 C 48.515625 43.972656 48.714844 44.160156 48.714844 44.542969 C 48.714844 44.929688 48.515625 45.125 48.121094 45.125 L 46.019531 45.125 L 46.019531 50.953125 C 46.019531 51.429688 45.789062 51.667969 45.324219 51.667969 Z M 45.324219 51.667969 "/>
<path style=" stroke:none;fill-rule:nonzero;fill:rgb(46.666667%,72.156863%,0%);fill-opacity:1;" d="M 49.824219 51.667969 C 49.378906 51.667969 49.160156 51.4375 49.160156 50.976562 L 49.160156 44.566406 C 49.160156 44.109375 49.378906 43.882812 49.824219 43.882812 C 50.277344 43.882812 50.503906 44.109375 50.503906 44.566406 L 50.503906 47.066406 C 50.683594 46.78125 50.925781 46.566406 51.230469 46.417969 C 51.53125 46.269531 51.867188 46.195312 52.234375 46.195312 C 53.480469 46.195312 54.101562 46.917969 54.101562 48.363281 L 54.101562 50.976562 C 54.101562 51.4375 53.878906 51.667969 53.433594 51.667969 C 52.980469 51.667969 52.753906 51.4375 52.753906 50.976562 L 52.753906 48.429688 C 52.753906 48.019531 52.671875 47.722656 52.519531 47.535156 C 52.367188 47.347656 52.125 47.25 51.800781 47.25 C 51.40625 47.25 51.089844 47.375 50.855469 47.625 C 50.621094 47.875 50.503906 48.203125 50.503906 48.609375 L 50.503906 50.976562 C 50.503906 51.4375 50.277344 51.667969 49.824219 51.667969 Z M 49.824219 51.667969 "/>
<path style=" stroke:none;fill-rule:nonzero;fill:rgb(46.666667%,72.156863%,0%);fill-opacity:1;" d="M 57.167969 51.6875 C 55.871094 51.6875 55.222656 50.960938 55.222656 49.507812 L 55.222656 46.894531 C 55.222656 46.441406 55.445312 46.214844 55.894531 46.214844 C 56.347656 46.214844 56.574219 46.441406 56.574219 46.894531 L 56.574219 49.53125 C 56.574219 49.90625 56.648438 50.179688 56.800781 50.359375 C 56.949219 50.542969 57.191406 50.632812 57.523438 50.632812 C 57.882812 50.632812 58.175781 50.507812 58.40625 50.257812 C 58.636719 50.007812 58.753906 49.679688 58.753906 49.269531 L 58.753906 46.894531 C 58.753906 46.441406 58.976562 46.214844 59.421875 46.214844 C 59.875 46.214844 60.101562 46.441406 60.101562 46.894531 L 60.101562 50.976562 C 60.101562 51.4375 59.882812 51.667969 59.441406 51.667969 C 59.003906 51.667969 58.785156 51.4375 58.785156 50.976562 L 58.785156 50.792969 C 58.433594 51.390625 57.894531 51.6875 57.167969 51.6875 Z M 57.167969 51.6875 "/>
<path style=" stroke:none;fill-rule:nonzero;fill:rgb(46.666667%,72.156863%,0%);fill-opacity:1;" d="M 63.695312 51.6875 C 63.148438 51.6875 62.671875 51.578125 62.269531 51.355469 C 61.867188 51.132812 61.554688 50.816406 61.328125 50.402344 C 61.105469 49.984375 60.996094 49.496094 60.996094 48.933594 C 60.996094 48.375 61.105469 47.890625 61.328125 47.480469 C 61.554688 47.070312 61.867188 46.753906 62.269531 46.53125 C 62.671875 46.308594 63.148438 46.195312 63.695312 46.195312 C 64.242188 46.195312 64.71875 46.308594 65.121094 46.53125 C 65.523438 46.753906 65.835938 47.070312 66.058594 47.480469 C 66.285156 47.890625 66.394531 48.375 66.394531 48.933594 C 66.394531 49.496094 66.285156 49.984375 66.058594 50.402344 C 65.835938 50.816406 65.523438 51.132812 65.121094 51.355469 C 64.71875 51.578125 64.242188 51.6875 63.695312 51.6875 Z M 63.695312 50.664062 C 64.097656 50.664062 64.421875 50.519531 64.667969 50.226562 C 64.910156 49.933594 65.03125 49.503906 65.03125 48.933594 C 65.03125 48.359375 64.910156 47.929688 64.667969 47.644531 C 64.421875 47.359375 64.097656 47.21875 63.695312 47.21875 C 63.292969 47.21875 62.96875 47.359375 62.722656 47.644531 C 62.476562 47.929688 62.355469 48.359375 62.355469 48.933594 C 62.355469 49.503906 62.476562 49.933594 62.722656 50.226562 C 62.96875 50.519531 63.292969 50.664062 63.695312 50.664062 Z M 65.585938 44.519531 C 65.5 44.628906 65.398438 44.675781 65.28125 44.667969 C 65.167969 44.65625 65.078125 44.601562 65.015625 44.5 C 64.957031 44.398438 64.964844 44.28125 65.046875 44.140625 L 65.714844 42.953125 C 65.792969 42.808594 65.894531 42.730469 66.015625 42.710938 C 66.136719 42.695312 66.25 42.714844 66.355469 42.777344 C 66.460938 42.839844 66.53125 42.925781 66.5625 43.042969 C 66.597656 43.15625 66.5625 43.28125 66.460938 43.40625 Z M 62.824219 45.558594 C 62.707031 45.6875 62.582031 45.742188 62.453125 45.726562 C 62.324219 45.707031 62.226562 45.644531 62.167969 45.53125 C 62.105469 45.417969 62.121094 45.292969 62.214844 45.15625 L 62.917969 44.109375 C 63.027344 43.953125 63.144531 43.839844 63.269531 43.78125 C 63.394531 43.71875 63.539062 43.6875 63.695312 43.6875 C 63.859375 43.6875 64.007812 43.71875 64.132812 43.78125 C 64.257812 43.839844 64.371094 43.953125 64.472656 44.109375 L 65.175781 45.15625 C 65.269531 45.292969 65.285156 45.417969 65.230469 45.53125 C 65.171875 45.644531 65.078125 45.707031 64.953125 45.726562 C 64.828125 45.742188 64.703125 45.6875 64.582031 45.558594 L 63.695312 44.574219 Z M 62.824219 45.558594 "/>
<path style=" stroke:none;fill-rule:nonzero;fill:rgb(46.666667%,72.156863%,0%);fill-opacity:1;" d="M 69.730469 51.6875 C 69.175781 51.6875 68.691406 51.574219 68.28125 51.347656 C 67.871094 51.121094 67.554688 50.800781 67.332031 50.382812 C 67.109375 49.96875 66.996094 49.476562 66.996094 48.914062 C 66.996094 48.351562 67.109375 47.867188 67.332031 47.460938 C 67.554688 47.054688 67.871094 46.742188 68.28125 46.523438 C 68.691406 46.304688 69.175781 46.195312 69.730469 46.195312 C 69.964844 46.195312 70.222656 46.226562 70.5 46.292969 C 70.777344 46.355469 71.039062 46.464844 71.285156 46.613281 C 71.425781 46.703125 71.511719 46.8125 71.535156 46.953125 C 71.5625 47.085938 71.542969 47.214844 71.480469 47.328125 C 71.421875 47.445312 71.332031 47.527344 71.210938 47.578125 C 71.09375 47.628906 70.957031 47.609375 70.808594 47.519531 C 70.476562 47.335938 70.15625 47.242188 69.847656 47.242188 C 69.378906 47.242188 69.019531 47.386719 68.761719 47.679688 C 68.507812 47.96875 68.378906 48.382812 68.378906 48.925781 C 68.378906 49.457031 68.507812 49.878906 68.761719 50.183594 C 69.019531 50.488281 69.378906 50.640625 69.847656 50.640625 C 70.15625 50.640625 70.476562 50.550781 70.808594 50.371094 C 70.957031 50.285156 71.089844 50.265625 71.207031 50.316406 C 71.320312 50.371094 71.40625 50.453125 71.453125 50.574219 C 71.503906 50.691406 71.515625 50.816406 71.488281 50.953125 C 71.460938 51.082031 71.378906 51.191406 71.238281 51.277344 C 71 51.421875 70.75 51.527344 70.484375 51.589844 C 70.21875 51.65625 69.964844 51.6875 69.730469 51.6875 Z M 69.730469 51.6875 "/>
</g>
</svg>
